<svg width="256" height="199" viewBox="0 0 256 199" fill="none" xmlns="http://www.w3.org/2000/svg">
<path d="M162.611 141.315H93.3889V16.913H162.611V141.315Z" fill="#6C6BBD"/>
<path d="M97.783 79.117C97.783 53.881 109.598 31.402 127.998 16.916C114.543 6.323 97.56 0 79.106 0C35.416 0 0 35.421 0 79.117C0 122.812 35.416 158.233 79.106 158.233C97.561 158.233 114.543 151.91 127.998 141.317C109.598 126.831 97.783 104.352 97.783 79.117Z" fill="#D32011"/>
<path d="M256 79.117C256 122.812 220.584 158.233 176.894 158.233C158.439 158.233 141.457 151.91 127.997 141.317C146.402 126.831 158.217 104.352 158.217 79.117C158.217 53.881 146.402 31.402 127.997 16.916C141.457 6.323 158.44 0 176.894 0C220.584 0 256 35.421 256 79.117Z" fill="#0099DF"/>
</svg>
